# xmcd CD database file
#
# Track frame offsets:
#	150
#	12719
#	24661
#	37467
#	47111
#	57088
#	67574
#	76990
#	90248
#	103079
#	113606
#	127196
#	138715
#	150643
#	161370
#	173186
#	185526
#	197111
#	209061
#	220068
#	230368
#	240827
#	252775
#
# Disc length: 3527 seconds
#
# Revision: 0
# Processed by: cddbd v1.5.2PL0 Copyright (c) Steve Scherf et al.
# Submitted via: CDex 1.51
#
DISCID=3d0dc517
DTITLE=Loretta Lynn - Fist Citty
DYEAR=1960
DGENRE=Country
TTITLE0=Loretta Lynn - 01 - There Goes My Everything
TTITLE1=Loretta Lynn - 02 - If You're Not Gone Too Long
TTITLE2=Loretta Lynn - 03 - What Kind Of Girl (Do You Think I Am)
TTITLE3=Loretta Lynn - 04 - Who Says God Is Dead!
TTITLE4=Loretta Lynn - 05 - Fist City
TTITLE5=Loretta Lynn - 06 - You've Just Stepped In (From Stepping Out On Me)
TTITLE6=Loretta Lynn - 07 - Your Squaw Is On The Warpath
TTITLE7=Loretta Lynn - 08 - Woman Of The World (Leave My World Alone)
TTITLE8=Loretta Lynn - 09 - Love L-O-V-E
TTITLE9=Loretta Lynn - 10 - Who's Gonna Take The Garbage Out (with Ernest Tubb)
TTITLE10=Loretta Lynn - 11 - Coal Miner's Daughter
TTITLE11=Loretta Lynn - 12 - You Wanna Give Me A Lift
TTITLE12=Loretta Lynn - 13 - Wings Upon Your Horns
TTITLE13=Loretta Lynn - 14 - The One You Need
TTITLE14=Loretta Lynn - 15 - Deep As Your Pocket
TTITLE15=Loretta Lynn - 16 - Crazy Out Of My Mind
TTITLE16=Loretta Lynn - 17 - I Know How
TTITLE17=Loretta Lynn - 18 - After The Fire Is Gone (with Conway Twitty)
TTITLE18=Loretta Lynn - 19 - Lead Me On (with Conway Twitty)
TTITLE19=Loretta Lynn - 20 - I Wanna Be Free
TTITLE20=Loretta Lynn - 21 - You're Lookin' At Country
TTITLE21=Loretta Lynn - 22 - One's On The Way
TTITLE22=Loretta Lynn - 23 - Rated 'X'
EXTD=YEAR: 1960
EXTT0=
EXTT1=
EXTT2=
EXTT3=
EXTT4=
EXTT5=
EXTT6=
EXTT7=
EXTT8=
EXTT9=
EXTT10=
EXTT11=
EXTT12=
EXTT13=
EXTT14=
EXTT15=
EXTT16=
EXTT17=
EXTT18=
EXTT19=
EXTT20=
EXTT21=
EXTT22=
PLAYORDER=
